# AST/ASF file generated using VICON BodyLanguage
# -----------------------------------------------
:version 1.10
:name VICON
:units
  mass 1.0
  length 0.45
  angle deg
:documentation
   .ast/.asf automatically generated from VICON data using
   VICON BodyBuilder and BodyLanguage model FoxedUp or BRILLIANT.MOD
:root
   order TX TY TZ RX RY RZ
   axis XYZ
   position 0 0 0  
   orientation 0 0 0 
:bonedata
  begin
     id 1 
     name lhipjoint
     direction 0.714689 -0.624256 0.315473 
     length 2.45343 
     axis 0 0 0  XYZ
  end
  begin
     id 2 
     name lfemur
     direction 0.34202 -0.939693 0  
     length 6.59069  
     axis 0 0 20  XYZ
    dof rx ry rz
    limits (-160.0 20.0)
           (-70.0 70.0)
           (-60.0 70.0)
  end
  begin
     id 3 
     name ltibia
     direction 0.34202 -0.939693 0   
     length 6.73476   
     axis 0 0 20   XYZ
    dof rx
    limits (-10.0 170.0)
  end
  begin
     id 4 
     name lfoot
     direction 0.0718085 -0.197292 0.977711   
     length 1.52607   
     axis -90 7.62852e-016 20   XYZ
    dof rx rz
    limits (-45.0 90.0)
           (-70.0 20.0)
  end
  begin
     id 5 
     name ltoes
     direction 1.53553e-011 -4.22024e-011 1   
     length 0.777832   
     axis -90 7.62852e-016 20   XYZ
    dof rx
    limits (-90.0 20.0)
  end
  begin
     id 6 
     name rhipjoint
     direction -0.727419 -0.612432 0.309497   
     length 2.50079  
     axis 0 0 0  XYZ 
  end
  begin
     id 7 
     name rfemur
     direction -0.34202 -0.939693 0   
     length 6.51665   
     axis 0 0 -20   XYZ
    dof rx ry rz
    limits (-160.0 20.0)
           (-70.0 70.0)
           (-70.0 60.0)
  end
  begin
     id 8 
     name rtibia
     direction -0.34202 -0.939693 0   
     length 6.48919   
     axis 0 0 -20   XYZ
    dof rx
    limits (-10.0 170.0)
 end
 begin
     id 9 
     name rfoot
     direction -0.112205 -0.308282 0.944655   
     length 1.68717  
     axis -90 -7.62852e-016 -20   XYZ
    dof rx rz
    limits (-45.0 90.0)
           (-20.0 70.0)
  end
  begin
     id 10 
     name rtoes
     direction -1.53583e-011 -4.21993e-011 1   
     length 0.846859   
     axis -90 -7.62852e-016 -20   XYZ
    dof rx
    limits (-90.0 20.0)
  end
  begin
     id 11 
     name lowerback
     direction -0.00119603 0.996364 -0.0851956   
     length 1.67242   
     axis 0 0 0   XYZ
    dof rx ry rz
    limits (-20.0 45.0)
           (-30.0 30.0)
           (-30.0 30.0)
  end
  begin
     id 12 
     name upperback
     direction -0.00531001 0.998318 0.0577248   
     length 1.64819   
     axis 0 0 0   XYZ
    dof rx ry rz
    limits (-20.0 45.0)
           (-30.0 30.0)
           (-30.0 30.0)
  end
  begin
     id 13 
     name thorax
     direction -0.00653676 0.995132 0.0983291   
     length 1.67429   
     axis 0 0 0   XYZ
    dof rx ry rz
    limits (-20.0 45.0)
           (-30.0 30.0)
           (-30.0 30.0)
  end
  begin
     id 14 
     name lowerneck
     direction 0.0141424 0.999886 0.00525412   
     length 1.59623   
     axis 0 0 0   XYZ
    dof rx ry rz
    limits (-20.0 45.0)
           (-30.0 30.0)
           (-30.0 30.0)
  end
  begin
     id 15 
     name upperneck
     direction -0.0640064 0.987178 -0.146232   
     length 1.59576   
     axis 0 0 0   XYZ
    dof rx ry rz
    limits (-20.0 45.0)
           (-30.0 30.0)
           (-30.0 30.0)
  end
  begin
     id 16
     name head
     direction -0.0222942 0.998496 -0.0500859  
     length 1.60959  
     axis 0 0 0   XYZ
    dof rx ry rz
    limits (-20.0 45.0)
           (-30.0 30.0)
           (-30.0 30.0)
  end
  begin
     id 17 
     name lclavicle
     direction 0.908549 0.392612 0.142806  
     length 2.80649  
     axis 0 0 0   XYZ
    dof ry rz
    limits (-20.0 10.0)
           (0.0 20.0)
  end
  begin
     id 18 
     name lhumerus
     direction 1 -4.48968e-011 1.08832e-028   
     length 4.2884   
     axis -180 -30 -90   XYZ
    dof rx ry rz
    limits (-60.0 90.0)
           (-90.0 90.0)
           (-90.0 90.0)
  end
  begin
     id 19
     name lradius
     direction 1 -4.48952e-011 -3.02642e-028   
     length 3.06552   
     axis -180 -30 -90   XYZ
    dof rx
    limits (-10.0 170.0)
  end
  begin
     id 20
     name lwrist
     direction 1 -4.49014e-011 1.58672e-027   
     length 1.53276   
     axis -1.65735e-015 90 90   XYZ
    dof ry
    limits (-180.0 0.0)
 end
  begin
     id 21 
     name lhand
     direction 1 -4.48928e-011 3.17344e-027   
     length 0.753045   
     axis -2.02492e-015 90 90   XYZ
    dof rx rz
    limits (-90.0 90.0)
           (-45.0 45.0)
  end
  begin
     id 22 
     name lfingers
     direction 1 -4.48958e-011 6.34687e-027   
     length 0.607124   
     axis -4.04985e-015 90 90   XYZ
    dof rx
    limits (0.0 90.0)
  end
  begin
     id 23
     name lthumb
     direction 0.707107 -6.34905e-011 0.707107   
     length 0.871712   
     axis -90 45 2.85299e-015   XYZ
    dof rx rz
    limits (-45.0 45.0)
           (-45.0 45.0)
  end
  begin
     id 24 
     name rclavicle
     direction -0.885098 0.45949 0.0739604   
     length 2.9478  
     axis 0 0 0   XYZ 
    dof ry rz
    limits (-10.0 20.0)
           (-20.0 0.0)
  end
  begin
     id 25 
     name rhumerus
     direction -1 -4.4898e-011 -2.61739e-027  
     length 4.52172   
     axis -180 30 90   XYZ
    dof rx ry rz
    limits (-90.0 60.0)
           (-90.0 90.0)
           (-90.0 90.0)
  end
  begin
     id 26 
     name rradius
     direction -1 -4.48945e-011 9.02552e-028   
     length 2.8914   
     axis -180 30 90   XYZ
    dof rx
    limits (-10.0 170.0)
  end
  begin
     id 27 
     name rwrist
     direction -1 -4.49018e-011 1.58672e-027   
     length 1.4457   
     axis -1.65735e-015 -90 -90   XYZ
    dof ry
    limits (-180.0 0.0)
  end
  begin
     id 28
     name rhand
     direction -1 -4.48825e-011 3.17344e-027   
     length 0.680541   
     axis -2.02492e-015 -90 -90   XYZ
    dof rx rz
    limits (-90.0 90.0)
           (-45.0 45.0)
  end
  begin
     id 29
     name rfingers
     direction -1 -4.49067e-011 6.34687e-027   
     length 0.54867   
     axis -4.04985e-015 -90 -90   XYZ
    dof rx
    limits (0.0 90.0)
  end
  begin
     id 30
     name rthumb
     direction -0.707107 -6.34833e-011 0.707107   
     length 0.787783   
     axis -90 -45 -2.85299e-015   XYZ
    dof rx rz
    limits (-45.0 45.0)
           (-45.0 45.0)
  end
:hierarchy
  begin
    root lhipjoint rhipjoint lowerback
    lhipjoint lfemur
    lfemur ltibia
    ltibia lfoot
    lfoot ltoes
    rhipjoint rfemur
    rfemur rtibia
    rtibia rfoot
    rfoot rtoes
    lowerback upperback
    upperback thorax
    thorax lowerneck lclavicle rclavicle
    lowerneck upperneck
    upperneck head
    lclavicle lhumerus
    lhumerus lradius
    lradius lwrist
    lwrist lhand lthumb
    lhand lfingers
    rclavicle rhumerus
    rhumerus rradius
    rradius rwrist
    rwrist rhand rthumb
    rhand rfingers
  end

#!OML:ASF E:\emotionWalksFemale\Project 1\Capture day 1\Session 1\Female1.ASF
:FULLY-SPECIFIED
:DEGREES
1
root 8.59191 15.5495 22.2469 179.664 4.00237 -179.088
lowerback 7.13433 0.383804 -0.158372
upperback -4.58303 0.605847 0.193538
thorax -8.8596 0.350009 0.198982
lowerneck -7.37581 -1.93295 -5.92748
upperneck 7.88232 -2.55343 7.73584
head 3.72919 -1.02285 3.19674
rclavicle -1.27719e-014 -3.27995e-015
rhumerus -42.564 5.27424 -88.1224
rradius 40.5879
rwrist 28.0243
rhand -7.01753 -55.7824
rfingers 7.12502
rthumb 18.854 -84.8886
lclavicle -1.27719e-014 -3.27995e-015
lhumerus -42.0158 8.38366 80.6433
lradius 36.6858
lwrist -16.2912
lhand 8.57124 -32.6473
lfingers 7.12502
lthumb 33.77 -5.81275
rfemur 0.590946 18.3651 25.5599
rtibia 13.314
rfoot -14.4503 -28.5463
rtoes -0.84879
lfemur -4.47642 -20.1557 -22.8314
ltibia 21.855
lfoot -22.0213 21.0838
ltoes -31.5312
2
root 8.58978 15.5535 22.2576 179.755 3.81416 -179.063
lowerback 7.51656 0.344423 -0.177505
upperback -4.73194 0.55721 0.212161
thorax -9.24801 0.33026 0.232774
lowerneck -7.38392 -1.93561 -6.0505
upperneck 7.90198 -2.55415 7.86564
head 3.7397 -1.01945 3.25727
rclavicle -1.20389e-014 7.95139e-016
rhumerus -42.7518 5.63506 -87.7937
rradius 41.0186
rwrist 27.6173
rhand -6.47033 -56.2598
rfingers 7.12502
rthumb 19.3802 -85.314
lclavicle -1.20389e-014 7.95139e-016
lhumerus -42.5265 8.26696 79.992
lradius 36.6669
lwrist -16.3392
lhand 8.32252 -32.5678
lfingers 7.12502
lthumb 33.5336 -5.68172
rfemur 0.4718 18.3079 25.5474
rtibia 13.299
rfoot -14.4827 -28.578
rtoes -0.563846
lfemur -4.66511 -20.1429 -22.7318
ltibia 21.846
lfoot -21.755 20.9212
ltoes -31.7242
3
root 8.58689 15.5553 22.2654 179.815 3.7005 -179.011
lowerback 7.5885 0.287602 -0.0860835
upperback -4.69994 0.486719 0.191267
thorax -9.25408 0.288233 0.1699
lowerneck -7.26452 -1.90134 -6.01998
upperneck 7.56249 -2.50744 7.91275
head 3.6144 -1.0003 3.26855
rclavicle 3.65267e-015 -8.94531e-016
rhumerus -42.6578 6.13657 -87.5858
rradius 41.2924
rwrist 27.2093
rhand -6.15681 -56.2479
rfingers 7.12502
rthumb 19.6816 -85.2716
lclavicle 3.65267e-015 -8.94531e-016
lhumerus -42.7946 8.043 79.3185
lradius 36.71
lwrist -16.1524
lhand 8.42572 -32.2848
lfingers 7.12502
lthumb 33.6317 -5.42002
rfemur 0.424845 18.3549 25.5785
rtibia 13.2493
rfoot -14.4797 -28.6337
rtoes -0.0812031
lfemur -4.80129 -20.1673 -22.6332
ltibia 21.8901
lfoot -21.6509 20.7238
ltoes -31.1368
4
root 8.58218 15.5543 22.2677 179.797 3.61522 -179.029
lowerback 7.66924 0.24802 -0.0436297
upperback -4.63589 0.430372 0.155412
thorax -9.23081 0.254746 0.116747
lowerneck -7.23069 -1.88045 -5.87212
upperneck 7.32165 -2.47787 7.77339
head 3.53066 -0.993324 3.20187
rclavicle 1.40392e-015 -6.95746e-016
rhumerus -42.6402 6.65676 -87.3118
rradius 41.6357
rwrist 27.0587
rhand -5.77593 -55.9503
rfingers 7.12502
rthumb 20.0477 -84.936
lclavicle 1.40392e-015 -6.95746e-016
lhumerus -43.0724 7.84338 78.6601
lradius 36.8037
lwrist -15.9746
lhand 8.82701 -32.1371
lfingers 7.12502
lthumb 34.013 -5.3562
rfemur 0.459665 18.3338 25.5508
rtibia 13.2163
rfoot -14.3468 -28.7255
rtoes -0.516315
lfemur -4.80262 -20.2056 -22.6709
ltibia 21.9293
lfoot -21.703 20.5685
ltoes -30.5392
5
root 8.57757 15.5534 22.267 179.758 3.44833 -179.058
lowerback 7.78646 0.188806 -0.00995028
upperback -4.60992 0.349882 0.131952
thorax -9.27106 0.211424 0.0850958
lowerneck -7.27129 -1.85442 -5.85689
upperneck 7.31219 -2.43987 7.72499
head 3.53108 -0.976511 3.18624
rclavicle -1.4797e-014 -1.78906e-015
rhumerus -42.7924 7.29056 -87.0765
rradius 42.0177
rwrist 26.6919
rhand -5.61594 -55.2869
rfingers 7.12502
rthumb 20.2015 -84.2565
lclavicle -1.4797e-014 -1.78906e-015
lhumerus -43.4425 7.6708 78.0013
lradius 36.8544
lwrist -15.8481
lhand 9.02551 -32.5667
lfingers 7.12502
lthumb 34.2015 -5.82787
rfemur 0.529413 18.3062 25.5337
rtibia 13.1987
rfoot -14.3954 -28.8574
rtoes -0.587258
lfemur -4.78773 -20.2681 -22.7293
ltibia 21.9662
lfoot -21.6457 20.5755
ltoes -30.9962
6
root 8.57446 15.5518 22.2664 179.756 3.31589 -179.019
lowerback 7.9173 0.138712 0.0144066
upperback -4.6447 0.290153 0.175229
thorax -9.38659 0.182786 0.126157
lowerneck -7.11357 -1.80997 -5.95612
upperneck 7.18632 -2.37261 7.72413
head 3.46339 -0.95151 3.2062
rclavicle -8.33653e-015 9.93923e-017
rhumerus -43.1232 8.18797 -86.8978
rradius 42.4547
rwrist 26.0251
rhand -5.80731 -54.6966
rfingers 7.12502
rthumb 20.0176 -83.6855
lclavicle -8.33653e-015 9.93923e-017
lhumerus -43.9885 7.4331 77.3857
lradius 36.9549
lwrist -15.667
lhand 9.04361 -32.9204
lfingers 7.12502
lthumb 34.2187 -6.18545
rfemur 0.551036 18.4172 25.5992
rtibia 13.2219
rfoot -14.5814 -29.0025
rtoes 0.305777
lfemur -4.81888 -20.3234 -22.6837
ltibia 21.9769
lfoot -21.5455 20.6033
ltoes -31.3536
7
root 8.57014 15.5508 22.2633 179.763 3.33904 -179.011
lowerback 7.919 0.165571 0.0258512
upperback -4.61464 0.326783 0.186155
thorax -9.35475 0.199506 0.125701
lowerneck -6.87864 -1.7849 -5.96856
upperneck 6.80852 -2.33175 7.68703
head 3.30777 -0.943431 3.19864
rclavicle -7.70291e-016 -1.49089e-015
rhumerus -43.3389 9.04795 -86.6604
rradius 42.9129
rwrist 25.5997
rhand -5.88533 -54.7603
rfingers 7.12502
rthumb 19.9426 -83.7571
lclavicle -7.70291e-016 -1.49089e-015
lhumerus -44.4035 6.97294 76.8632
lradius 37.1249
lwrist -15.209
lhand 9.28574 -32.6752
lfingers 7.12502
lthumb 34.4486 -5.99217
rfemur 0.515619 18.4687 25.6019
rtibia 13.309
rfoot -14.6007 -29.0109
rtoes 0.60212
lfemur -4.80806 -20.3036 -22.6874
ltibia 21.9487
lfoot -21.5632 20.5755
ltoes -31.0459
8
root 8.56429 15.5523 22.2612 179.774 3.55695 -179.049
lowerback 7.87366 0.299535 0.0315711
upperback -4.52959 0.498599 0.139044
thorax -9.23475 0.278903 0.0460827
lowerneck -6.78727 -1.82774 -5.84801
upperneck 6.46168 -2.38542 7.58473
head 3.18979 -0.978029 3.14391
rclavicle 1.15544e-015 1.09332e-015
rhumerus -43.3581 9.82778 -86.4262
rradius 43.2141
rwrist 25.048
rhand -5.83987 -54.9693
rfingers 7.12502
rthumb 19.9863 -83.9615
lclavicle 1.15544e-015 1.09332e-015
lhumerus -44.5982 6.30225 76.3668
lradius 37.2509
lwrist -14.6264
lhand 9.14332 -32.5428
lfingers 7.12502
lthumb 34.3134 -5.82915
rfemur 0.417883 18.4725 25.5069
rtibia 13.4347
rfoot -14.5978 -28.812
rtoes 0.0603591
lfemur -4.7611 -20.2202 -22.7654
ltibia 21.8987
lfoot -21.7115 20.6173
ltoes -30.7329
9
root 8.55621 15.5524 22.2569 179.778 3.97577 -179.055
lowerback 7.82652 0.488512 0.051164
upperback -4.44221 0.749721 0.135617
thorax -9.11149 0.397761 -0.00669128
lowerneck -6.73386 -1.86026 -5.9135
upperneck 6.22797 -2.41877 7.60847
head 3.11429 -0.999491 3.15994
rclavicle 3.31722e-015 2.38542e-015
rhumerus -43.477 10.9092 -86.2875
rradius 43.5492
rwrist 23.9686
rhand -5.9453 -55.1961
rfingers 7.12502
rthumb 19.8849 -84.1988
lclavicle 3.31722e-015 2.38542e-015
lhumerus -44.8559 5.68382 75.8818
lradius 37.4411
lwrist -14.2376
lhand 8.16365 -32.9166
lfingers 7.12502
lthumb 33.3826 -5.99786
rfemur 0.298794 18.5129 25.4156
rtibia 13.558
rfoot -14.5458 -28.5053
rtoes -0.47898
lfemur -4.65731 -20.2317 -22.8577
ltibia 21.8496
lfoot -21.9751 20.8383
ltoes -30.0935
10
root 8.54707 15.5499 22.2454 179.729 4.27686 -179.033
lowerback 7.72557 0.619697 0.0870418
upperback -4.3025 0.926699 0.179978
thorax -8.9 0.48094 -0.00447982
lowerneck -6.66847 -1.85674 -6.07313
upperneck 5.93186 -2.39585 7.66534
head 3.01578 -0.995213 3.20439
rclavicle 1.28465e-014 4.17448e-015
rhumerus -43.6117 12.1025 -86.0885
rradius 43.9428
rwrist 23.1669
rhand -5.97538 -55.7178
rfingers 7.12502
rthumb 19.856 -84.7235
lclavicle 1.28465e-014 4.17448e-015
lhumerus -45.1314 5.16262 75.4686
lradius 37.8113
lwrist -13.7574
lhand 7.62663 -33.1712
lfingers 7.12502
lthumb 32.872 -6.14405
rfemur 0.312062 18.5464 25.3998
rtibia 13.6416
rfoot -14.4944 -28.3185
rtoes -0.396578
lfemur -4.48242 -20.3405 -22.9582
ltibia 21.8352
lfoot -22.202 21.1289
ltoes -29.4839
11
root 8.54228 15.5479 22.2405 179.747 4.24666 -179.019
lowerback 7.60965 0.686093 0.120453
upperback -4.13912 1.01069 0.170512
thorax -8.65352 0.517151 -0.0425706
lowerneck -6.70494 -1.91313 -6.01584
upperneck 5.32133 -2.42795 7.28545
head 3.14876 -1.04771 3.41581
rclavicle -5.44173e-015 1.09332e-015
rhumerus -43.5596 13.0635 -85.7615
rradius 44.1979
rwrist 22.9632
rhand -5.84952 -56.0093
rfingers 7.12502
rthumb 19.977 -85.0024
lclavicle -5.44173e-015 1.09332e-015
lhumerus -45.2289 4.58602 74.9943
lradius 38.164
lwrist -13.269
lhand 7.55983 -33.2724
lfingers 7.12502
lthumb 32.8084 -6.232
rfemur 0.317099 18.5731 25.4095
rtibia 13.6583
rfoot -14.4824 -28.3535
rtoes -0.0140048
lfemur -4.50496 -20.3503 -22.9591
ltibia 21.872
lfoot -22.167 21.1653
ltoes -29.7295
